<svg width="637" height="475" viewBox="0 0 637 475" fill="none" xmlns="http://www.w3.org/2000/svg">
<g clip-path="url(#clip0_161_160)">
<path d="M3.92767 29.5095H410.019C410.91 29.4899 411.617 28.7513 411.598 27.86C411.579 26.9964 410.883 26.3008 410.019 26.2817H3.92767C3.03577 26.3014 2.32874 27.04 2.34842 27.9313C2.36752 28.7949 3.06354 29.4905 3.92767 29.5095Z" fill="#E6E6E6"/>
<path d="M338.502 195.358H174.665C174.248 195.358 173.91 195.696 173.91 196.112V291.318C173.91 291.735 174.248 292.072 174.665 292.072H338.502V195.358Z" fill="#E6E6E6"/>
<path d="M174.857 292.586L338.718 196.089L338.286 194.628L174.425 291.126C174.022 291.245 173.791 291.668 173.91 292.072C174.03 292.475 174.453 292.706 174.857 292.586Z" fill="white"/>
<path d="M338.286 292.802L338.718 291.342L174.857 194.844C174.453 194.725 174.03 194.955 173.91 195.358C173.791 195.762 174.022 196.185 174.425 196.304L338.286 292.802Z" fill="white"/>
<path d="M193.272 100.117H319.325C321.295 100.117 322.892 101.713 322.892 103.682V103.682C322.892 105.651 321.295 107.248 319.325 107.248H193.272C191.302 107.248 189.705 105.651 189.705 103.682C189.705 101.713 191.302 100.117 193.272 100.117Z" fill="#E6E6E6"/>
<path d="M176.327 122.374H336.27C338.24 122.374 339.838 123.97 339.838 125.939V125.939C339.838 127.908 338.24 129.504 336.27 129.504H176.327C174.357 129.504 172.759 127.908 172.759 125.939C172.759 123.97 174.357 122.374 176.327 122.374Z" fill="#E6E6E6"/>
<path d="M176.327 144.631H336.27C338.24 144.631 339.838 146.227 339.838 148.196C339.838 150.165 338.24 151.761 336.27 151.761H176.327C174.357 151.761 172.759 150.165 172.759 148.196C172.759 146.227 174.357 144.631 176.327 144.631Z" fill="#407BFF"/>
<path d="M24.6568 219.766C24.6693 247.29 42.0737 271.804 68.0647 280.907C68.6167 281.105 69.1687 281.285 69.7266 281.459C103.817 292.35 140.287 273.561 151.185 239.493C162.083 205.424 143.282 168.977 109.192 158.085C75.1025 147.194 38.6325 165.983 27.7342 200.051C25.6955 206.425 24.6574 213.075 24.6568 219.766Z" fill="#E6E6E6"/>
<path d="M176.356 153.192C176.616 156.194 174.393 158.839 171.389 159.099C171.069 159.127 170.747 159.126 170.427 159.098L162.447 176.769L157.059 168.254L165.463 152.778C165.934 149.786 168.744 147.741 171.738 148.213C174.244 148.607 176.153 150.665 176.356 153.192Z" fill="#FFB6B6"/>
<path d="M97.7153 219.742C97.8314 219.22 97.9797 218.705 98.1592 218.201C99.303 214.953 101.632 212.257 104.681 210.652C104.753 210.61 104.831 210.568 104.903 210.532L141.357 192.046L144.591 185.745L157.658 160.304L160.862 161.257L168.434 163.506L168.608 163.554L156.057 205.765L153.177 207.972L120.556 232.903L119.494 233.719C114.075 237.853 106.446 237.404 101.549 232.663C101.061 232.195 100.609 231.69 100.199 231.152C97.7118 227.908 96.8012 223.725 97.7153 219.742Z" fill="#407BFF"/>
<path d="M77.4482 266.103L77.6402 259.147L78.1922 238.977C76.1943 226.068 74.7784 224.635 84.4139 215.808C85.1583 215.649 85.8009 215.183 86.1838 214.525C87.0597 212.739 84.9538 209.705 86.7717 205.034L101.117 205.855L104.681 210.652L119.02 229.959C119.582 230.914 120.095 231.896 120.556 232.903C126.694 246.226 118.372 253.307 117.724 254.525L113.752 267.026L111.563 279.15L110.855 280.835L108.857 281.566C96.1113 285.544 82.4498 285.507 69.7265 281.459C71.8678 276.134 74.4507 270.997 77.4482 266.103Z" fill="#407BFF"/>
<path d="M49.6638 315.136C48.4365 312.384 49.6742 309.159 52.4281 307.932C52.7217 307.801 53.0263 307.697 53.3384 307.62L55.1076 288.312L62.9824 294.603L60.095 311.973C60.6272 314.955 58.6394 317.804 55.6552 318.336C53.1582 318.781 50.6812 317.458 49.6638 315.136Z" fill="#FFB6B6"/>
<path d="M77.1003 220.467C79.1808 217.322 82.4668 215.172 86.1839 214.525C86.9798 214.381 87.7869 214.309 88.5958 214.31C91.2914 214.31 93.9272 215.105 96.1733 216.594C96.8859 217.064 97.551 217.602 98.1592 218.201C103.612 223.478 103.751 232.174 98.47 237.623L98.4652 237.628L77.6402 259.148L70.0505 266.99L68.0646 280.907L65.0108 302.319L61.675 302.463L53.7793 302.81L53.5993 302.816L52.2854 272.812L51.6734 258.824L77.1003 220.467Z" fill="#407BFF"/>
<path d="M105.558 172.122C110.63 182.112 107.317 193.684 97.9057 199.769C87.7287 206.349 74.5152 204.908 70.2412 192.121C65.4818 177.881 69.3918 171.772 77.894 164.474C87.8576 155.921 100.079 161.328 105.558 172.122Z" fill="#2F2E41"/>
<path d="M80.5924 194.377C85.9715 201.423 96.0479 202.778 103.099 197.402C110.141 192.033 111.503 181.98 106.144 174.933L106.004 174.75C100.469 167.825 90.3645 166.697 83.4358 172.229C76.6647 177.635 75.4081 187.436 80.5964 194.374L80.5924 194.377Z" fill="#FFB6B6"/>
<path d="M110.473 170.504C107.864 172.986 104.683 174.787 101.211 175.749C100.516 174.944 99.6907 174.261 98.7705 173.727C99.211 174.643 99.5129 175.619 99.6663 176.624C98.1181 179.835 91.7948 182.143 85.7514 184.504L77.7467 170.385L88.3418 164.386C96.8553 158.503 106.878 161.014 110.473 170.504Z" fill="#2F2E41"/>
<path d="M71.7086 164.491C70.1386 163.913 68.3823 164.169 67.0432 165.172C65.7533 166.152 64.7104 167.42 63.9978 168.874C62.7019 171.227 61.7708 173.763 61.2364 176.395C60.7794 178.672 60.8568 181.426 62.9012 182.614C64.6071 183.605 67.0462 182.981 68.6141 181.658C70.0672 180.269 71.1695 178.556 71.8301 176.658C72.595 174.842 73.3187 172.959 74.6782 171.451L73.2657 172.11C73.7122 170.755 73.9202 169.334 73.8806 167.908C73.8149 166.464 72.9882 165.164 71.7086 164.491Z" fill="#2F2E41"/>
<path d="M90.0339 166.341L78.667 172.778C72.2664 176.403 70.0178 184.526 73.6445 190.923C78.9017 200.193 90.3504 203.948 100.082 199.593L89.6947 190.43L103.785 197.605L106.794 195.901C91.6819 193.155 88.7668 181.308 90.0339 166.341Z" fill="#2F2E41"/>
<path d="M68.5611 177.655C66.6481 179.881 63.6529 180.746 60.951 181.904C51.2697 186.149 44.3093 194.896 42.3515 205.278C41.6045 209.444 41.7022 213.756 40.5223 217.817C39.3493 221.878 36.4449 225.862 32.2768 226.567C29.4562 227.048 26.6286 225.96 23.9755 224.885C22.5163 224.299 21.0571 223.711 19.5979 223.12C21.1199 219.303 22.6396 215.486 24.157 211.67C21.7183 215.272 18.8822 218.588 15.702 221.557C10.4727 219.45 5.23871 217.342 -7.62939e-06 215.235C12.8884 215.284 10.6891 202.781 13.5726 190.235C15.1575 183.341 28.6532 178.673 31.2994 172.115C35.4323 161.832 47.1237 156.844 57.413 160.975C61.8468 162.754 65.5001 166.056 67.7163 170.287C70.3625 171.34 70.4393 175.457 68.5611 177.655Z" fill="#2F2E41"/>
<path d="M442.952 298.433C445.367 295.377 444.846 290.944 441.788 288.53C441.492 288.297 441.177 288.087 440.848 287.904L444.528 252.955L435.106 249.561L431.038 291.102C429.403 294.63 430.939 298.815 434.47 300.45C437.424 301.817 440.931 300.983 442.952 298.433Z" fill="#FFB6B6"/>
<path d="M447.991 170.301C447.991 170.301 432.695 177.759 432.645 186.528C432.596 195.296 431.329 203.227 432.526 206.62C433.723 210.013 429.484 234.674 431.468 237.116C433.452 239.558 429.364 240.808 431.512 244.987C433.66 249.167 434.612 249.954 433.824 250.904C433.037 251.855 431.881 269.973 431.881 269.973L444.485 271.548L457.893 213.07L447.991 170.301Z" fill="#3F3D56"/>
<path d="M520.733 301.983C517.866 299.346 517.681 294.886 520.32 292.021C520.576 291.743 520.853 291.487 521.15 291.253L512.002 257.322L520.771 252.485L531.342 292.866C533.513 296.092 532.656 300.467 529.428 302.637C526.726 304.453 523.132 304.183 520.733 301.983Z" fill="#FFB6B6"/>
<path d="M495.542 176.248C495.542 176.248 511.823 181.203 513.256 189.854C514.688 198.505 517.191 206.137 516.544 209.675C515.897 213.214 523.974 236.899 522.4 239.623C520.826 242.348 525.06 242.938 523.598 247.403C522.136 251.869 521.321 252.796 522.248 253.611C523.175 254.425 527.176 272.134 527.176 272.134L514.978 275.676L492.511 220.042L495.542 176.248Z" fill="#3F3D56"/>
<path d="M433.015 453.792L422.155 453.792L416.989 411.93L433.016 411.93L433.015 453.792Z" fill="#FFB6B6"/>
<path d="M418.541 454.769V447.411L421.396 447.585L433.018 448.274L435.707 448.439L437.764 473.08L437.874 474.401H430.163L429.915 473.09L428.795 467.126L425.903 473.09L425.27 474.401H404.826C402.295 474.385 400.248 472.336 400.237 469.805C399.374 465.778 416.375 457.072 418.541 454.769Z" fill="#2F2E41"/>
<path d="M560.244 441.978L550.798 447.334L525.633 413.472L539.573 405.568L560.244 441.978Z" fill="#FFB6B6"/>
<path d="M548.133 449.962L544.507 443.568L547.059 442.311L557.515 437.182L559.938 435.99L571.844 453.411L574.644 457.503L571.477 459.301L567.943 461.31L563.151 455.659L563.683 463.723L546.985 473.2H546.976L545.902 473.805C543.694 475.052 540.893 474.276 539.641 472.071C536.906 468.989 547.389 453.044 548.133 449.962Z" fill="#2F2E41"/>
<path d="M486.908 248.301C510.977 249.165 519.436 347.238 512.086 349.017L546.387 412.902L497.565 434.773L465.463 323.379L460.113 364.372L467.247 429.426L435.689 437.053L413.861 435.495C419.533 357.952 433.694 276.168 445.43 244.532L486.908 248.301Z" fill="#2F2E41"/>
<path d="M497.957 255.177L498.116 255.773C482.731 264.327 472.226 262.497 455.408 257.319L443.131 254.74C440.452 251.248 442.635 247.832 445.605 244.507L438.244 184.008C438.294 176.17 444.692 169.856 452.535 169.906C452.857 169.908 453.179 169.921 453.501 169.945L464.556 161.76L480.295 162.302L490.823 173.924L497.113 176.17L501.999 177.911C502.987 178.8 504.066 179.825 505.099 180.956L497.369 226.93L494.081 240.677C498.489 245.699 500.917 250.601 497.957 255.177Z" fill="#3F3D56"/>
<path d="M587.246 466.809C598.699 465.446 608.924 458.99 615.074 449.239C619.022 442.839 621.06 435.239 623.03 427.889C623.604 425.751 624.197 423.539 624.824 421.407C626.277 416.64 624.681 411.47 620.795 408.349C617.038 405.201 611.742 404.655 607.421 406.969L606.96 407.214L606.152 425.361C604.955 422.93 602.328 417.437 600.247 411.953L600.073 411.494L599.674 411.782C595.49 414.786 591.7 418.305 588.396 422.255C576.586 436.604 571.69 455.417 575.007 473.698L575.107 474.236L587.246 466.809Z" fill="#F2F2F2"/>
<path d="M637 474.103C637.001 474.597 636.602 474.998 636.108 475H0.897522C0.401855 475 6.10352e-05 474.598 6.10352e-05 474.103C6.10352e-05 473.608 0.401855 473.206 0.897522 473.206H636.103C636.597 473.205 636.999 473.604 637 474.098L637 474.103Z" fill="#CCCCCC"/>
<path d="M450.042 151.439L450.027 151.435C448.313 150.982 447.291 149.226 447.745 147.513L452.317 130.201C453.133 127.098 454.565 124.192 456.528 121.653C460.367 116.702 465.969 113.423 472.167 112.498C475.366 112.024 478.628 112.203 481.756 113.023C494.554 116.377 498.129 120.607 498.851 142.255C499.574 163.903 494.272 159.593 494.272 159.593C494.162 160.011 493.969 160.402 493.705 160.743C493.188 161.408 492.434 161.848 491.6 161.971C491.172 162.034 490.736 162.01 490.318 161.901C474.336 160.257 458.15 158.759 450.04 151.438L450.042 151.439Z" fill="#2F2E41"/>
<path d="M487.618 133.163C489.964 142.624 484.19 152.194 474.723 154.538C470.186 155.661 465.388 154.941 461.381 152.535C457.375 150.147 454.492 146.256 453.376 141.729C451.038 132.266 456.82 122.701 466.289 120.365C470.815 119.248 475.599 119.965 479.598 122.36C483.609 124.745 486.498 128.635 487.618 133.163Z" fill="#FFB6B6"/>
<path d="M446.451 130.16C447.097 127.707 448.229 125.408 449.781 123.401C451.987 117.907 455.446 113.466 462.148 116.162C464.662 115.791 467.225 115.928 469.684 116.567L473.156 117.464C473.195 117.474 473.234 117.485 473.273 117.495C483.368 120.165 489.386 130.507 486.715 140.596L486.623 140.943L479.281 139.038L478.624 131.395L476.276 138.26L472.483 137.277L472.153 133.421L470.968 136.882C463.777 139.674 455.442 136.904 446.362 130.509L446.451 130.16Z" fill="#2F2E41"/>
<path d="M463.296 154.352C463.034 154.881 462.925 155.474 462.983 156.062C463.01 156.362 463.079 156.658 463.189 156.939C463.283 157.178 463.405 157.406 463.552 157.617C463.99 158.241 464.635 158.689 465.373 158.88C465.419 158.892 465.465 158.903 465.511 158.913C465.558 158.923 465.605 158.931 465.652 158.939C465.699 158.948 465.746 158.955 465.794 158.96C465.842 158.966 465.89 158.971 465.938 158.975L468.666 159.189L474.274 152.479L472.422 159.491L484.82 160.484L492.679 130.727L472.813 125.588L473.153 126.287C474.276 128.627 474.732 131.231 474.47 133.813C474.192 136.425 473.468 138.97 472.33 141.338C471.197 143.739 469.836 146.025 468.266 148.166C466.887 150.065 465.398 151.884 463.809 153.612C463.605 153.834 463.432 154.083 463.296 154.352Z" fill="#2F2E41"/>
<path d="M364.937 13.0311C361.415 13.0311 358.56 10.114 358.56 6.51554C358.56 2.91711 361.415 0 364.937 0C368.46 0 371.315 2.91711 371.315 6.51554C371.315 10.114 368.46 13.0311 364.937 13.0311Z" fill="#3F3D56"/>
<path d="M342.906 13.0311C339.384 13.0311 336.529 10.114 336.529 6.51554C336.529 2.91711 339.384 0 342.906 0C346.428 0 349.284 2.91711 349.284 6.51554C349.284 10.114 346.428 13.0311 342.906 13.0311Z" fill="#3F3D56"/>
<path d="M320.875 13.0311C317.353 13.0311 314.498 10.114 314.498 6.51554C314.498 2.91711 317.353 0 320.875 0C324.397 0 327.252 2.91711 327.252 6.51554C327.252 10.114 324.397 13.0311 320.875 13.0311Z" fill="#3F3D56"/>
<path d="M295.753 11.6652C295.949 11.6652 296.145 11.5893 296.292 11.4385L300.596 7.0423C300.883 6.74937 300.883 6.28126 300.596 5.98833L296.292 1.59253C296 1.29518 295.523 1.2904 295.226 1.58076C294.928 1.87185 294.923 2.34915 295.214 2.64649L299.002 6.51531L295.214 10.3845C294.923 10.6819 294.928 11.1592 295.226 11.4502C295.373 11.5938 295.563 11.6652 295.753 11.6652Z" fill="#3F3D56"/>
<path d="M288.522 11.6652C288.713 11.6652 288.903 11.5938 289.05 11.4503C289.348 11.1592 289.353 10.6823 289.062 10.3846L285.275 6.51538L289.062 2.64656C289.353 2.34921 289.348 1.87191 289.05 1.58082C288.753 1.28936 288.275 1.29489 287.983 1.59259L283.681 5.9884C283.394 6.28133 283.394 6.74943 283.681 7.04236L287.983 11.4385C288.131 11.5894 288.327 11.6652 288.522 11.6652Z" fill="#3F3D56"/>
<path d="M63.404 0.754395H71.4054C72.318 0.754395 73.057 1.49298 73.057 2.40493V10.4089C73.057 11.3209 72.318 12.0595 71.4054 12.0595H63.404C62.4915 12.0595 61.7449 11.3209 61.7449 10.4089V2.40493C61.7449 1.49298 62.4915 0.754395 63.404 0.754395Z" fill="#3F3D56"/>
<path d="M83.0117 0.754395H91.0131C91.9256 0.754395 92.6647 1.49298 92.6647 2.40493V10.4089C92.6647 11.3209 91.9256 12.0595 91.0131 12.0595H83.0117C82.0992 12.0595 81.3526 11.3209 81.3526 10.4089V2.40493C81.3526 1.49298 82.0992 0.754395 83.0117 0.754395Z" fill="#3F3D56"/>
<path d="M44.9276 1.13135H52.929C53.8415 1.13135 54.5806 1.86993 54.5806 2.78189V10.7859C54.5806 11.6978 53.8415 12.4364 52.929 12.4364H44.9276C44.0151 12.4364 43.2685 11.6978 43.2685 10.7859V2.78189C43.2685 1.86993 44.0151 1.13135 44.9276 1.13135Z" fill="#3F3D56"/>
<path d="M165.531 4.17578H229.49C230.606 4.17578 231.503 5.08019 231.503 6.18811C231.503 7.29603 230.606 8.2004 229.49 8.2004H165.531C164.422 8.2004 163.518 7.29599 163.518 6.18811C163.518 5.08024 164.422 4.17578 165.531 4.17578Z" fill="#3F3D56"/>
</g>
<defs>
<clipPath id="clip0_161_160">
<rect width="637" height="475" fill="white" transform="matrix(-1 0 0 1 637 0)"/>
</clipPath>
</defs>
</svg>
