<svg width="596" height="441" viewBox="0 0 596 441" fill="none" xmlns="http://www.w3.org/2000/svg">
<g clip-path="url(#clip0_161_40)">
<path d="M172.955 323.448H493.909C496.768 323.445 499.51 322.306 501.532 320.282C503.554 318.258 504.692 315.514 504.695 312.651V51.0643C504.692 48.2019 503.554 45.4576 501.532 43.4335C499.51 41.4095 496.768 40.2709 493.909 40.2676H172.955C170.095 40.2709 167.353 41.4095 165.331 43.4335C163.309 45.4576 162.171 48.2019 162.168 51.0643V312.651C162.171 315.514 163.309 318.258 165.331 320.282C167.353 322.306 170.095 323.445 172.955 323.448Z" fill="#E6E6E6"/>
<path d="M486.631 47.9526C489.386 47.9558 492.027 49.0526 493.975 51.0024C495.923 52.9522 497.018 55.5957 497.021 58.353V305.369C497.018 308.126 495.923 310.77 493.975 312.719C492.027 314.669 489.386 315.766 486.631 315.769H266.951C241.204 315.74 216.521 305.489 198.315 287.267C180.11 269.044 169.869 244.337 169.84 218.566V58.353C169.843 55.5957 170.939 52.9522 172.887 51.0024C174.834 49.0526 177.475 47.9559 180.23 47.9527L486.631 47.9526Z" fill="white"/>
<path d="M231.481 159.046H289.677C290.891 159.045 292.055 158.562 292.913 157.703C293.771 156.844 294.254 155.679 294.255 154.464V125.471C294.254 124.256 293.771 123.091 292.913 122.232C292.055 121.373 290.891 120.89 289.677 120.889H231.481C230.267 120.89 229.103 121.373 228.245 122.232C227.387 123.091 226.904 124.256 226.903 125.471C223.302 135.731 222.79 145.48 226.903 154.464C226.904 155.679 227.387 156.844 228.245 157.703C229.103 158.562 230.267 159.045 231.481 159.046Z" fill="#E6E6E6"/>
<path d="M238.375 156.245H287.819C288.85 156.243 289.839 155.833 290.568 155.103C291.297 154.373 291.708 153.384 291.709 152.351V127.719C291.708 126.687 291.297 125.697 290.568 124.967C289.839 124.237 288.85 123.827 287.819 123.826H238.375C237.344 123.827 236.355 124.237 235.626 124.967C234.897 125.697 234.487 126.687 234.486 127.719C231.149 136.491 230.612 144.793 234.486 152.351C234.487 153.384 234.897 154.373 235.626 155.103C236.355 155.833 237.344 156.243 238.375 156.245Z" fill="white"/>
<path d="M241.042 174.234H280.245C281.399 174.236 282.505 173.779 283.322 172.964C284.139 172.149 284.599 171.043 284.601 169.889C284.603 168.734 284.147 167.626 283.334 166.808C282.52 165.99 281.415 165.529 280.262 165.527H241.042C239.89 165.529 238.785 165.989 237.971 166.805C237.158 167.621 236.7 168.727 236.7 169.88C236.7 171.034 237.158 172.14 237.971 172.956C238.785 173.772 239.89 174.232 241.042 174.234Z" fill="#E6E6E6"/>
<path d="M267.401 130.477C267.852 130.479 268.284 130.659 268.602 130.978C268.921 131.298 269.101 131.73 269.101 132.182V150.636C269.101 150.934 269.023 151.227 268.875 151.485C268.726 151.743 268.513 151.958 268.255 152.108C267.998 152.257 267.706 152.337 267.408 152.338C267.11 152.339 266.817 152.262 266.559 152.114L250.286 142.827C250.024 142.678 249.807 142.462 249.656 142.202C249.505 141.941 249.426 141.645 249.427 141.344C249.428 141.042 249.509 140.747 249.661 140.487C249.813 140.227 250.032 140.013 250.294 139.865L266.566 130.698C266.821 130.554 267.108 130.477 267.401 130.477Z" fill="#E6E6E6"/>
<path d="M29.9893 405.693C30.8868 404.55 32.1056 403.703 33.4886 403.261C34.8715 402.818 36.3553 402.801 37.7483 403.21L38.053 403.301L40.7853 413.978C41.1947 412.387 42.0706 408.794 42.6227 405.278L42.6703 404.987L42.9416 405.107C45.7981 406.37 48.4835 407.99 50.934 409.928C55.2754 413.414 58.8063 417.804 61.2815 422.794C63.7566 427.783 65.1166 433.253 65.2668 438.821L65.2716 439.026L65.2764 439.155L64.9146 439.026L57.1508 436.248C53.7134 436.552 50.2517 436.083 47.0185 434.876C43.7853 433.669 40.8621 431.755 38.4623 429.273C35.3254 425.961 33.1738 421.702 31.0936 417.581C30.4843 416.38 29.8607 415.141 29.2229 413.95C28.5113 412.655 28.204 411.175 28.3406 409.704C28.4772 408.232 29.0515 406.835 29.9893 405.693Z" fill="#F2F2F2"/>
<path d="M228.255 133.399C228.099 134.207 227.768 134.972 227.285 135.638C226.802 136.304 226.179 136.857 225.46 137.256C224.741 137.656 223.943 137.892 223.123 137.95C222.302 138.007 221.479 137.884 220.712 137.588L197.508 164.606L194.571 154.632L217.575 129.914C218.156 128.656 219.178 127.655 220.448 127.101C221.717 126.547 223.145 126.478 224.462 126.908C225.778 127.337 226.891 128.236 227.591 129.432C228.29 130.628 228.526 132.04 228.255 133.399Z" fill="#FFB8B8"/>
<path d="M134.739 432.567H142.418L146.071 402.92H134.738L134.739 432.567Z" fill="#FFB6B6"/>
<path d="M134.944 430.057L143.143 426.719L143.378 426.623L147.905 430.057C150.46 430.057 152.912 431.074 154.719 432.883C156.526 434.692 157.542 437.145 157.542 439.703V440.017H132.783V430.057H134.944Z" fill="#2F2E41"/>
<path d="M79.9608 432.567H87.6396L91.2927 402.92H79.9593L79.9608 432.567Z" fill="#FFB6B6"/>
<path d="M80.1658 430.057L88.3645 426.719L88.5993 426.623L93.126 430.057C95.6819 430.057 98.133 431.074 99.9403 432.883C101.748 434.692 102.763 437.145 102.763 439.703V440.017H78.0047V430.057H80.1658Z" fill="#2F2E41"/>
<path d="M98.084 255.531C98.084 255.531 88.4526 265.56 88.4526 273.801C88.4526 282.042 90.8604 293.357 88.4526 295.834C86.0447 298.31 83.0349 301.323 86.6467 304.938C90.2584 308.553 92.0643 310.361 89.6565 312.771C87.2486 315.181 88.4526 357.358 88.4526 357.358L75.8114 413.996H91.7373L111.929 357.358L117.347 310.361L134.868 355.551L132.933 414.482L149.583 413.996L156.474 351.333C156.474 351.333 146.241 291.725 148.047 290.198C149.853 288.67 148.047 285.586 148.047 285.586L143.231 262.761L98.084 255.531Z" fill="#2F2E41"/>
<path d="M116.941 184.42C116.941 184.42 113.666 171.503 128.754 167.8C143.842 164.096 186.97 159.338 186.97 159.338L208.766 136.188L216.152 146.924L191.718 177.316L133.824 189.219L116.941 184.42Z" fill="#3F3D56"/>
<path d="M212.562 146.132C211.885 145.255 211.356 144.273 210.994 143.224L207.868 135.537L208.68 135.503C209.802 135.291 210.957 135.32 212.068 135.586C213.179 135.853 214.222 136.351 215.127 137.049C216.032 137.747 216.779 138.628 217.321 139.635C217.862 140.642 218.184 141.753 218.266 142.893C218.369 143.88 218.192 144.875 217.756 145.766C217.534 146.208 217.21 146.59 216.812 146.883C216.413 147.175 215.952 147.369 215.464 147.448C214.911 147.478 214.358 147.374 213.853 147.145C213.348 146.916 212.905 146.569 212.562 146.132Z" fill="#E6E6E6"/>
<path d="M146.305 265.839L148.111 278.943C148.111 278.943 144.499 282.825 142.693 282.34C140.887 281.855 134.266 279.03 134.266 279.03C134.266 279.03 126.44 283.311 122.226 283.796C118.013 284.281 95.7401 281.369 95.1382 279.913C94.5362 278.457 87.5396 272.758 87.5396 272.758L90.3224 256.133L146.305 265.839Z" fill="#E6E6E6"/>
<path d="M87.6558 220C87.6558 220 89.1848 232.635 87.9809 233.797C86.7769 234.954 89.1848 242.275 91.5926 247.095C94.0005 251.916 89.7867 252.518 89.7867 256.133C89.7867 259.748 87.9809 273.004 87.9809 273.004C87.9809 273.004 106.642 274.209 109.651 271.197C112.661 268.184 117.477 270.594 124.099 277.222C130.72 283.85 145.101 278.427 148.111 275.414C151.121 272.402 145.769 261.556 143.963 259.453C142.157 257.35 145.703 259.785 147.509 253.121C149.315 246.457 145.769 247.095 142.759 244.083C139.75 241.07 142.759 235.647 145.167 230.224C147.575 224.802 145.769 184.432 145.769 174.792C145.769 165.151 132.526 163.946 132.526 163.946L127.283 157.348L123.43 152.498L115.882 152.197L115.683 152.191L108.381 151.896L104.836 156.029L97.0103 165.151L87.9809 166.959C80.7573 169.369 82.5632 184.432 82.5632 184.432L87.6558 220Z" fill="#3F3D56"/>
<path d="M116.254 149.583C107.708 149.583 100.781 142.649 100.781 134.095C100.781 125.541 107.708 118.606 116.254 118.606C124.8 118.606 131.728 125.541 131.728 134.095C131.728 142.649 124.8 149.583 116.254 149.583Z" fill="#FFB6B6"/>
<path d="M98.3129 128.885C102.569 126.272 102.024 119.441 106.124 117.056C108.162 115.879 110.454 115.214 112.805 115.115C115.155 115.016 117.495 115.487 119.624 116.488C122.512 115.251 125.973 116.238 128.283 118.472C130.594 120.705 131.845 124 132.214 127.314C132.48 130.643 132.241 133.993 131.505 137.251C131.276 135.942 131.046 134.633 130.817 133.324L118.618 130.656C119.698 131.627 120.778 132.598 121.858 133.569C116.333 134.828 110.537 133.921 105.66 131.034C100.35 133.417 101.312 138.768 105.974 145.87C104.167 148.883 93.4636 131.861 98.3129 128.885Z" fill="#2F2E41"/>
<path d="M104.836 156.029C104.87 156.057 104.907 156.083 104.944 156.107C106.219 156.868 107.679 157.264 109.164 157.252C111.107 157.414 113.037 156.809 114.539 155.565C115.328 154.818 118.464 156.396 120.523 157.27C122.682 158.166 125.103 158.194 127.283 157.348L123.43 152.498L117.081 151.089H115.496L108.381 151.895L104.836 156.029Z" fill="#E6E6E6"/>
<path d="M0.938766 440.756L216.329 441C216.453 441.001 216.576 440.977 216.691 440.93C216.806 440.883 216.91 440.814 216.998 440.727C217.086 440.64 217.156 440.536 217.204 440.421C217.252 440.307 217.277 440.184 217.278 440.06C217.279 439.936 217.255 439.813 217.208 439.698C217.161 439.584 217.092 439.479 217.005 439.391C216.918 439.303 216.814 439.233 216.7 439.185C216.586 439.136 216.463 439.111 216.339 439.111H216.329L0.938766 438.867C0.689285 438.868 0.450455 438.968 0.274506 439.145C0.0985413 439.322 -0.000228882 439.562 -0.000228882 439.812C-0.000228882 440.061 0.0985413 440.301 0.274506 440.478C0.450455 440.655 0.689285 440.755 0.938766 440.756Z" fill="#CACACA"/>
<path d="M258.839 123.52H260.424V10.0366H198.08V11.6233H258.839V123.52Z" fill="#3F3D56"/>
<path d="M149.595 0H191.603C194.336 0 196.956 1.08661 198.889 3.02079C200.821 4.95496 201.907 7.57826 201.907 10.3136C201.907 13.0489 200.821 15.6722 198.889 17.6064C196.956 19.5406 194.336 20.6272 191.603 20.6272H149.595C146.862 20.6272 144.241 19.5406 142.309 17.6064C140.377 15.6722 139.291 13.0489 139.291 10.3136C139.291 7.57826 140.377 4.95496 142.309 3.02079C144.241 1.08661 146.862 0 149.595 0Z" fill="#407BFF"/>
<path d="M260.552 133.902C255.322 133.902 251.083 129.659 251.083 124.425C251.083 119.191 255.322 114.948 260.552 114.948C265.781 114.948 270.02 119.191 270.02 124.425C270.02 129.659 265.781 133.902 260.552 133.902Z" fill="#407BFF"/>
<path d="M374.648 160.037L333.11 150.416L321.187 147.654C319.696 147.309 320.316 145.01 321.808 145.356L363.345 154.977L375.268 157.739C376.759 158.084 376.14 160.383 374.648 160.037Z" fill="#F2F2F2"/>
<path d="M331.755 134.981L309.518 145.219C308.76 145.482 308.049 145.867 307.414 146.36C306.8 146.961 307.247 147.54 307.748 148.064C309.245 149.463 310.825 150.769 312.481 151.975L321.955 159.684C323.144 160.652 321.466 162.34 320.288 161.382L312.037 154.667L307.911 151.31C306.742 150.359 305.319 149.388 304.85 147.873C303.863 144.689 307.757 143.424 309.922 142.427L319.605 137.969L330.544 132.932C331.923 132.297 333.144 134.341 331.755 134.981Z" fill="#F2F2F2"/>
<path d="M24.8953 212.923C28.8568 210.235 33.6693 209.236 38.3734 208.897C43.7202 208.606 49.079 208.612 54.4251 208.916C59.9785 209.136 65.5206 209.538 71.0514 210.123C76.5743 210.708 82.0741 211.474 87.5506 212.422C92.4539 213.186 97.3061 214.249 102.08 215.606C106.599 216.857 110.855 218.915 114.644 221.679C117.971 224.183 120.529 227.57 122.028 231.457C123.499 235.101 123.749 239.126 122.74 242.925C122.203 244.771 121.283 246.482 120.04 247.948C118.603 249.555 116.901 250.904 115.008 251.935C111.078 254.181 106.626 255.532 103.071 258.407C102.134 259.16 101.28 260.01 100.523 260.944C100.009 261.666 99.2982 262.226 98.4757 262.555C97.6963 262.828 96.8537 262.864 96.0541 262.658C95.2546 262.452 94.5338 262.013 93.9828 261.398C93.2709 260.423 92.6773 259.366 92.2148 258.251L90.3397 254.63C90.2142 254.313 90.0572 254.01 89.8709 253.725C89.7304 253.557 89.9816 253.728 89.9337 253.684C89.9073 253.66 89.853 253.661 89.8229 253.641C89.6678 253.564 89.5057 253.502 89.3388 253.455C87.6043 252.794 85.8621 252.152 84.1121 251.532C77.653 249.228 71.1161 247.104 64.4759 245.384C61.059 244.466 57.5935 243.741 54.0957 243.21C49.5654 242.564 44.9665 242.639 40.4156 242.198C35.5158 241.722 30.4601 240.73 26.2583 238.029C22.7839 235.916 20.1074 232.709 18.6477 228.911C18.0149 227.101 17.7979 225.172 18.0129 223.266C18.5587 218.954 21.373 215.313 24.8953 212.923Z" fill="#E6E6E6"/>
<path d="M33.0031 215.346C36.5829 212.916 40.932 212.014 45.1829 211.707C50.0147 211.444 54.8573 211.45 59.6884 211.724C64.7068 211.923 69.7151 212.287 74.7131 212.815C79.7041 213.344 84.6741 214.036 89.6231 214.893C94.0541 215.584 98.4388 216.544 102.753 217.77C106.836 218.901 110.683 220.76 114.107 223.258C117.113 225.521 119.424 228.582 120.779 232.094C122.109 235.388 122.335 239.024 121.423 242.458C120.937 244.126 120.106 245.672 118.982 246.996C117.684 248.449 116.146 249.668 114.435 250.6C110.884 252.63 106.861 253.85 103.649 256.449C102.802 257.128 102.03 257.897 101.346 258.74C100.881 259.393 100.239 259.899 99.4956 260.197C98.7913 260.443 98.0299 260.476 97.3073 260.289C96.5848 260.103 95.9335 259.707 95.4356 259.151C94.7922 258.27 94.2559 257.315 93.8378 256.307L92.1433 253.035C92.03 252.749 91.8881 252.475 91.7198 252.217C91.5928 252.065 91.8197 252.22 91.7765 252.18C91.7526 252.158 91.7036 252.159 91.6763 252.142C91.5362 252.072 91.3896 252.015 91.2388 251.974C89.6714 251.376 88.097 250.796 86.5157 250.235C80.6788 248.153 74.7715 246.234 68.7709 244.679C65.6831 243.85 62.5515 243.195 59.3907 242.715C55.2968 242.131 51.1408 242.199 47.0283 241.8C42.6005 241.371 38.0318 240.474 34.2347 238.033C31.095 236.123 28.6764 233.226 27.3572 229.794C26.7854 228.158 26.5893 226.414 26.7835 224.692C27.2768 220.796 29.8201 217.506 33.0031 215.346Z" fill="white"/>
<path d="M40.501 219.733L98.8376 230.502C99.0044 230.534 99.1759 230.533 99.3421 230.498C99.5084 230.464 99.6662 230.397 99.8066 230.301C99.9469 230.205 100.067 230.082 100.16 229.94C100.253 229.798 100.317 229.639 100.348 229.472C100.379 229.304 100.377 229.133 100.342 228.966C100.307 228.8 100.24 228.642 100.144 228.502C100.047 228.362 99.9246 228.242 99.7822 228.15C99.6397 228.057 99.4804 227.994 99.3134 227.963L99.3058 227.961L40.9692 217.192C40.8025 217.161 40.6314 217.163 40.4656 217.199C40.2998 217.234 40.1427 217.302 40.0031 217.398C39.8635 217.494 39.7442 217.617 39.652 217.76C39.5598 217.902 39.4965 218.061 39.4658 218.228C39.4351 218.395 39.4374 218.566 39.4728 218.732C39.5082 218.898 39.5759 219.055 39.672 219.195C39.7682 219.335 39.8908 219.454 40.0331 219.546C40.1753 219.639 40.3343 219.702 40.501 219.733Z" fill="#E6E6E6"/>
<path d="M39.0639 227.531L97.4006 238.3C97.5674 238.332 97.7388 238.331 97.9051 238.296C98.0713 238.261 98.2291 238.194 98.3694 238.098C98.5097 238.003 98.6297 237.88 98.7226 237.738C98.8155 237.596 98.8794 237.436 98.9107 237.269C98.942 237.102 98.9401 236.931 98.905 236.764C98.87 236.598 98.8024 236.44 98.7064 236.3C98.6103 236.16 98.4875 236.04 98.3451 235.948C98.2026 235.855 98.0433 235.792 97.8763 235.761L97.8688 235.759L39.5322 224.99C39.3655 224.959 39.1944 224.961 39.0286 224.997C38.8628 225.032 38.7057 225.1 38.5661 225.196C38.4265 225.292 38.3072 225.415 38.215 225.557C38.1228 225.7 38.0595 225.859 38.0287 226.026C37.998 226.193 38.0004 226.364 38.0358 226.53C38.0712 226.696 38.1389 226.853 38.235 226.993C38.3311 227.133 38.4538 227.252 38.596 227.344C38.7382 227.437 38.8972 227.5 39.0639 227.531Z" fill="#E6E6E6"/>
<path d="M89.1654 244.843L95.9637 246.099C96.2997 246.159 96.6462 246.084 96.9271 245.89C97.208 245.696 97.4005 245.398 97.4625 245.062C97.5244 244.725 97.4507 244.378 97.2576 244.096C97.0644 243.815 96.7675 243.621 96.4319 243.558L89.6336 242.303C89.2973 242.241 88.9507 242.316 88.6695 242.511C88.3883 242.705 88.1956 243.003 88.1336 243.339C88.0716 243.676 88.1454 244.023 88.3389 244.305C88.5323 244.587 88.8295 244.781 89.1654 244.843Z" fill="#E6E6E6"/>
<path d="M94.0905 277.263C91.111 276.713 89.1411 273.85 89.6906 270.867C90.2401 267.885 93.101 265.913 96.0805 266.464C99.06 267.014 101.03 269.877 100.48 272.859C99.9308 275.842 97.07 277.813 94.0905 277.263Z" fill="#D1D3D4"/>
<path d="M395.993 157.578H445.821C448.134 157.575 450.352 156.654 451.988 155.017C453.623 153.38 454.543 151.16 454.546 148.845V115.974C454.543 113.659 453.623 111.439 451.988 109.802C450.352 108.165 448.134 107.244 445.821 107.241H395.993C393.68 107.244 391.462 108.165 389.827 109.802C388.191 111.439 387.271 113.659 387.268 115.974V148.845C387.271 151.16 388.191 153.38 389.827 155.017C391.462 156.654 393.68 157.575 395.993 157.578Z" fill="#E6E6E6"/>
<path d="M401.469 155.807H444.835C446.848 155.805 448.778 155.003 450.202 153.578C451.625 152.153 452.426 150.222 452.428 148.206V119.599C452.426 117.584 451.625 115.652 450.202 114.227C448.778 112.802 446.848 112 444.835 111.998H401.469C399.456 112 397.526 112.802 396.102 114.227C394.679 115.652 393.878 117.584 393.875 119.599V148.207C393.878 150.222 394.679 152.153 396.102 153.578C397.526 155.003 399.456 155.805 401.469 155.807Z" fill="white"/>
<path d="M388.975 187.193H452.911C453.306 187.192 453.685 187.034 453.964 186.754C454.243 186.474 454.399 186.095 454.399 185.699C454.399 185.304 454.243 184.925 453.964 184.645C453.685 184.365 453.306 184.207 452.911 184.206H388.975C388.58 184.207 388.201 184.365 387.922 184.645C387.643 184.925 387.486 185.304 387.486 185.699C387.486 186.095 387.643 186.474 387.922 186.754C388.201 187.034 388.58 187.192 388.975 187.193Z" fill="#E6E6E6"/>
<path d="M388.975 178.659H452.911C453.306 178.658 453.685 178.501 453.964 178.221C454.243 177.941 454.399 177.562 454.399 177.166C454.399 176.771 454.243 176.391 453.964 176.111C453.685 175.831 453.306 175.674 452.911 175.673H388.975C388.58 175.674 388.201 175.831 387.922 176.111C387.643 176.391 387.486 176.771 387.486 177.166C387.486 177.562 387.643 177.941 387.922 178.221C388.201 178.501 388.58 178.658 388.975 178.659Z" fill="#E6E6E6"/>
<path d="M388.975 195.725H452.911C453.307 195.725 453.686 195.568 453.966 195.288C454.246 195.008 454.403 194.628 454.403 194.232C454.403 193.836 454.246 193.456 453.966 193.176C453.686 192.896 453.307 192.739 452.911 192.739H388.975C388.579 192.739 388.2 192.896 387.92 193.176C387.64 193.456 387.483 193.836 387.483 194.232C387.483 194.628 387.64 195.008 387.92 195.288C388.2 195.568 388.579 195.725 388.975 195.725Z" fill="#E6E6E6"/>
<path d="M388.975 204.258H452.911C453.307 204.258 453.686 204.101 453.966 203.821C454.246 203.541 454.403 203.161 454.403 202.765C454.403 202.369 454.246 201.989 453.966 201.709C453.686 201.429 453.307 201.271 452.911 201.271H388.975C388.579 201.271 388.2 201.429 387.92 201.709C387.64 201.989 387.483 202.369 387.483 202.765C387.483 203.161 387.64 203.541 387.92 203.821C388.2 204.101 388.579 204.258 388.975 204.258Z" fill="#E6E6E6"/>
<path d="M388.975 212.791H452.911C453.307 212.791 453.686 212.633 453.966 212.353C454.246 212.073 454.403 211.693 454.403 211.297C454.403 210.901 454.246 210.522 453.966 210.242C453.686 209.962 453.307 209.804 452.911 209.804H388.975C388.579 209.804 388.2 209.962 387.92 210.242C387.64 210.522 387.483 210.901 387.483 211.297C387.483 211.693 387.64 212.073 387.92 212.353C388.2 212.633 388.579 212.791 388.975 212.791Z" fill="#E6E6E6"/>
<path d="M388.975 221.324H452.911C453.306 221.323 453.685 221.165 453.964 220.885C454.243 220.605 454.399 220.226 454.399 219.831C454.399 219.435 454.243 219.056 453.964 218.776C453.685 218.496 453.306 218.338 452.911 218.337H388.975C388.58 218.338 388.201 218.496 387.922 218.776C387.643 219.056 387.486 219.435 387.486 219.831C387.486 220.226 387.643 220.605 387.922 220.885C388.201 221.165 388.58 221.323 388.975 221.324Z" fill="#E6E6E6"/>
<path d="M424.139 201.754H422.554V262.877H537.21V261.29H424.139V201.754Z" fill="#3F3D56"/>
<path d="M585.696 272.914H543.688C540.955 272.914 538.334 271.827 536.402 269.893C534.47 267.959 533.384 265.336 533.384 262.6C533.384 259.865 534.47 257.242 536.402 255.307C538.334 253.373 540.955 252.287 543.688 252.287H585.696C588.429 252.287 591.05 253.373 592.982 255.307C594.914 257.242 596 259.865 596 262.6C596 265.336 594.914 267.959 592.982 269.893C591.05 271.827 588.429 272.914 585.696 272.914Z" fill="#407BFF"/>
<path d="M422.243 206.36C417.014 206.36 412.775 202.117 412.775 196.883C412.775 191.649 417.014 187.406 422.243 187.406C427.472 187.406 431.711 191.649 431.711 196.883C431.711 202.117 427.472 206.36 422.243 206.36Z" fill="#407BFF"/>
<path d="M373.304 199.517C359.402 202.474 362.938 203.051 349.037 206.008L337.067 208.555C335.569 208.873 335.159 206.529 336.657 206.21C350.559 203.253 347.023 202.676 360.924 199.718L372.894 197.172C374.392 196.853 374.802 199.198 373.304 199.517Z" fill="#F2F2F2"/>
<path d="M341.285 192.597L325.464 211.29C324.888 211.85 324.407 212.5 324.04 213.214C323.738 214.02 324.387 214.355 325.063 214.618C327.01 215.252 328.994 215.765 331.004 216.157L342.846 219.13C344.333 219.503 343.526 221.744 342.054 221.374L331.739 218.784L326.582 217.49C325.121 217.123 323.422 216.846 322.356 215.672C320.116 213.205 323.11 210.409 324.649 208.59L331.539 200.449L339.322 191.253C340.303 190.094 342.274 191.429 341.285 192.597Z" fill="#F2F2F2"/>
<path d="M291.122 274.084C278.962 274.084 269.104 264.216 269.104 252.044C269.104 239.872 278.962 230.005 291.122 230.005C303.283 230.005 313.141 239.872 313.141 252.044C313.141 264.216 303.283 274.084 291.122 274.084Z" fill="#E6E6E6"/>
<path d="M293.269 271.274C284.024 271.274 276.529 263.772 276.529 254.519C276.529 245.265 284.024 237.764 293.269 237.764C302.513 237.764 310.008 245.265 310.008 254.519C310.008 263.772 302.513 271.274 293.269 271.274Z" fill="white"/>
<path d="M296.272 265.989C296.652 265.989 297.027 265.901 297.367 265.731C297.707 265.56 298.003 265.313 298.231 265.009L304.238 256.992C304.431 256.734 304.572 256.441 304.652 256.129C304.732 255.817 304.75 255.493 304.704 255.174C304.659 254.855 304.551 254.549 304.388 254.272C304.224 253.995 304.007 253.752 303.75 253.559C303.493 253.366 303.2 253.225 302.889 253.145C302.577 253.065 302.253 253.047 301.934 253.093C301.616 253.138 301.31 253.246 301.033 253.41C300.756 253.574 300.514 253.79 300.321 254.048L300.319 254.05L296.389 259.294L286.296 244.14C286.118 243.871 285.888 243.641 285.621 243.461C285.354 243.282 285.054 243.157 284.738 243.093C284.422 243.03 284.097 243.029 283.781 243.092C283.466 243.154 283.165 243.278 282.897 243.457C282.63 243.636 282.4 243.866 282.22 244.134C282.041 244.401 281.917 244.702 281.854 245.018C281.791 245.334 281.791 245.659 281.854 245.975C281.917 246.291 282.041 246.592 282.22 246.86L294.234 264.898C294.451 265.224 294.743 265.493 295.086 265.683C295.429 265.873 295.812 265.978 296.204 265.989C296.227 265.989 296.249 265.989 296.272 265.989Z" fill="#E6E6E6"/>
<path d="M85.522 274.749C84.8131 274.331 84.2042 273.764 83.7382 273.085C83.2721 272.407 82.9604 271.635 82.8248 270.823C82.6892 270.011 82.7332 269.179 82.9536 268.386C83.1739 267.593 83.5654 266.858 84.1003 266.232L66.4206 235.309L76.7939 235.873L92.3751 265.84C93.365 266.809 93.9654 268.108 94.0625 269.49C94.1596 270.873 93.7466 272.243 92.9019 273.341C92.0571 274.439 90.8393 275.189 89.4792 275.448C88.119 275.708 86.711 275.459 85.522 274.749Z" fill="#FFB8B8"/>
<path d="M105.436 166.356C105.436 166.356 86.7107 160.331 81.8951 174.792C77.0794 189.252 60.8904 228.417 60.8904 228.417L78.2833 263.966L86.1088 255.531L77.7453 230.827L101.824 194.675L105.436 166.356Z" fill="#3F3D56"/>
<path d="M77.6866 260.336C78.2503 259.381 78.9652 258.525 79.8036 257.8L85.7782 252.044L86.1104 252.786C86.7229 253.752 87.1245 254.836 87.2891 255.967C87.4538 257.099 87.3777 258.253 87.0657 259.353C86.7538 260.453 86.2131 261.475 85.4792 262.351C84.7452 263.227 83.8345 263.939 82.8067 264.438C81.9293 264.899 80.94 265.104 79.9519 265.028C79.4598 264.985 78.9849 264.826 78.566 264.565C78.1471 264.303 77.7961 263.945 77.5417 263.521C77.309 263.018 77.2007 262.465 77.226 261.911C77.2512 261.357 77.4092 260.816 77.6866 260.336Z" fill="#E6E6E6"/>
<path d="M291.313 281.694H292.898V342.817H239.273V341.23H291.313V281.694Z" fill="#3F3D56"/>
<path d="M180.483 342.54C180.486 339.806 181.572 337.184 183.504 335.25C185.436 333.317 188.055 332.229 190.787 332.227H232.795C235.528 332.227 238.149 333.313 240.081 335.247C242.013 337.182 243.099 339.805 243.099 342.54C243.099 345.275 242.013 347.899 240.081 349.833C238.149 351.767 235.528 352.854 232.795 352.854H190.787C188.055 352.851 185.436 351.764 183.504 349.83C181.572 347.896 180.486 345.275 180.483 342.54Z" fill="#407BFF"/>
<path d="M293.21 286.3C287.98 286.3 283.741 282.057 283.741 276.823C283.741 271.589 287.98 267.346 293.21 267.346C298.439 267.346 302.678 271.589 302.678 276.823C302.678 282.057 298.439 286.3 293.21 286.3Z" fill="#407BFF"/>
</g>
<defs>
<clipPath id="clip0_161_40">
<rect width="596" height="441" fill="white" transform="matrix(-1 0 0 1 596 0)"/>
</clipPath>
</defs>
</svg>
