<svg width="767" height="553" viewBox="0 0 767 553" fill="none" xmlns="http://www.w3.org/2000/svg">
<g clip-path="url(#clip0_161_134)">
<path d="M334.742 487.583L335.904 461.436C348.026 454.957 361.546 451.534 375.29 451.466C356.374 466.932 358.738 496.746 345.913 517.544C341.863 524.001 336.413 529.463 329.965 533.526C323.518 537.589 316.239 540.15 308.668 541.017L292.838 550.71C290.666 538.6 291.145 526.163 294.242 514.256C297.339 502.349 302.98 491.255 310.777 481.738C315.204 476.443 320.28 471.726 325.886 467.699C329.677 477.696 334.742 487.583 334.742 487.583Z" fill="#F2F2F2"/>
<path d="M435.369 123.809C435.786 129.753 437.537 135.527 440.492 140.701C446.721 151.64 457.402 159.561 468.907 164.269C483.279 170.151 499.301 170.332 514.554 169.02C528.721 167.802 542.744 164.979 556.964 164.397C567.96 164.045 578.968 164.307 589.935 165.183C611.213 166.693 632.402 169.496 653.455 172.893C659.157 173.802 664.847 174.778 670.524 175.822C671.061 175.87 671.592 175.968 672.109 176.117C672.213 176.159 672.378 176.126 672.473 176.185C672.644 176.293 671.779 175.912 672.304 176.345C673.034 177.111 673.685 177.949 674.247 178.847L682.023 188.853C684.252 191.723 686.322 195.21 689.204 197.471C691.236 199.041 693.687 199.974 696.248 200.153C698.81 200.331 701.367 199.747 703.597 198.475C705.927 197.002 707.784 194.892 708.949 192.394C710.738 189.114 712.872 186.034 715.314 183.207C724.565 172.415 737.421 165.777 748.174 156.696C753.382 152.478 757.827 147.396 761.316 141.673C764.291 136.494 766.141 130.745 766.745 124.802C768.033 112.734 764.33 100.427 758.102 90.1601C751.327 79.1301 741.595 70.2216 730.011 64.4465C716.997 57.8161 702.597 54.5864 688.162 52.9769C672.836 51.2682 657.332 51.2735 641.932 51.446C624.648 51.6384 607.396 52.3985 590.174 53.7263C572.93 55.0612 555.753 56.9585 538.645 59.4185C522.229 61.7789 505.612 64.2391 489.542 68.4156C475.347 72.1052 461.191 77.8723 450.59 88.3216C441.165 97.6124 434.609 110.326 435.369 123.809Z" fill="#E6E6E6"/>
<path d="M510.372 75.3016C495.047 78.1291 479.009 81.5912 466.15 89.9764C453.433 98.2698 445.701 111.308 446.453 123.194C447.552 140.554 466.008 153.537 482.817 156.938C498.918 160.195 515.689 157.989 533.445 155.653C537.374 155.136 541.437 154.601 545.457 154.137C589.165 149.084 671.234 164.647 674.706 165.312L678.315 166.003L697.419 190.588C701.768 180.906 709.328 172.295 717.357 165.879C721.032 162.942 724.868 160.214 728.576 157.577C738.037 150.849 746.973 144.493 751.905 135.762C762.646 116.747 749.954 90.2324 731.845 78.3291C711.442 64.9188 684.556 62.8153 658.542 62.5392C655.832 62.5105 653.122 62.4961 650.409 62.4961C603.438 62.5032 556.565 66.7894 510.372 75.3016Z" fill="white"/>
<path d="M498.146 96.316C498.145 95.7889 498.248 95.2668 498.449 94.7795C498.651 94.2923 498.946 93.8495 499.318 93.4763C499.691 93.1032 500.133 92.807 500.62 92.6048C501.106 92.4025 501.628 92.2982 502.155 92.2976H686.64C687.705 92.2976 688.726 92.7205 689.478 93.4734C690.231 94.2262 690.654 95.2472 690.654 96.3118C690.654 97.3765 690.231 98.3975 689.478 99.1503C688.726 99.9032 687.705 100.326 686.64 100.326H502.155C501.092 100.325 500.073 99.9021 499.321 99.1503C498.569 98.3985 498.147 97.3792 498.146 96.316Z" fill="#E6E6E6"/>
<path d="M498.146 120.956C498.145 120.429 498.248 119.907 498.449 119.419C498.651 118.932 498.946 118.489 499.318 118.116C499.691 117.743 500.133 117.447 500.62 117.245C501.106 117.042 501.628 116.938 502.155 116.938H686.648C687.176 116.938 687.697 117.042 688.184 117.245C688.671 117.447 689.113 117.743 689.485 118.116C689.858 118.489 690.153 118.932 690.354 119.419C690.555 119.907 690.659 120.429 690.658 120.956C690.658 121.483 690.553 122.005 690.351 122.492C690.149 122.979 689.853 123.421 689.48 123.793C689.106 124.166 688.664 124.461 688.176 124.662C687.689 124.863 687.167 124.967 686.64 124.966H502.155C501.092 124.965 500.073 124.542 499.321 123.79C498.569 123.038 498.147 122.019 498.146 120.956Z" fill="#E6E6E6"/>
<path d="M661.131 145.595C661.131 145.068 661.234 144.546 661.435 144.059C661.636 143.572 661.932 143.129 662.304 142.756C662.676 142.382 663.119 142.086 663.605 141.884C664.092 141.682 664.614 141.577 665.141 141.577H686.64C687.705 141.577 688.726 142 689.478 142.753C690.231 143.505 690.654 144.527 690.654 145.591C690.654 146.656 690.231 147.677 689.478 148.43C688.726 149.182 687.705 149.605 686.64 149.605H665.141C664.078 149.604 663.059 149.181 662.307 148.43C661.555 147.678 661.132 146.659 661.131 145.595Z" fill="#E6E6E6"/>
<path d="M257.629 76.7425C255.71 72.3094 252.799 68.3767 249.119 65.2478C245.439 62.1189 241.089 59.8776 236.406 58.697C226.007 55.9921 210.78 60.1126 202.963 66.029C188.663 76.8512 185.173 114.029 194.998 125.778C196.952 125.7 203.695 125.642 205.673 125.585L208.471 118.504V125.516C223.908 125.153 239.98 125.38 256.06 125.615C257.502 117.296 260.935 84.7441 257.629 76.7425Z" fill="#2F2E41"/>
<path d="M255.008 525.052H269.089L275.787 470.738L255.005 470.739L255.008 525.052Z" fill="#9E616A"/>
<path d="M131.749 516.296L145.374 519.847L165.555 468.979L145.445 463.739L131.749 516.296Z" fill="#9E616A"/>
<path d="M209.343 191.464L206.153 199.759L206.791 208.055L269.231 229.683L266.132 193.378L259.113 185.082L209.343 191.464Z" fill="#FFB6B6"/>
<path d="M236.13 116.811C248.447 116.811 258.431 106.826 258.431 94.5087C258.431 82.1913 248.447 72.2061 236.13 72.2061C223.814 72.2061 213.829 82.1913 213.829 94.5087C213.829 106.826 223.814 116.811 236.13 116.811Z" fill="#9E616A"/>
<path d="M251.454 65.4668C247.169 62.8544 242.261 61.4412 237.242 61.375C232.224 61.3088 227.281 62.5922 222.928 65.0908C218.576 67.5894 214.975 71.2115 212.501 75.5784C210.027 79.9453 208.772 84.8966 208.867 89.9146C221.024 93.0218 233.978 94.3214 247.706 90.6629L250.844 82.9822L252.694 90.6686C256.894 93.6231 260.948 93.6178 264.855 90.6526C265.021 85.6488 263.871 80.6891 261.519 76.2694C259.167 71.8497 255.696 68.1247 251.454 65.4668Z" fill="#2F2E41"/>
<path d="M251.516 518.106L273.774 516.777V526.314L294.935 540.93C295.981 541.652 296.768 542.689 297.182 543.89C297.596 545.091 297.616 546.392 297.238 547.605C296.86 548.818 296.104 549.878 295.081 550.631C294.058 551.384 292.821 551.79 291.551 551.79H265.051L260.484 542.356L258.7 551.79H248.709L251.516 518.106Z" fill="#2F2E41"/>
<path d="M128.887 508.372L150.761 512.701L148.355 521.929L165.146 541.41C165.975 542.373 166.476 543.575 166.574 544.841C166.671 546.108 166.362 547.372 165.69 548.45C165.019 549.529 164.02 550.364 162.84 550.834C161.66 551.305 160.361 551.385 159.132 551.065L133.489 544.38L131.449 534.1L127.344 542.778L117.676 540.258L128.887 508.372Z" fill="#2F2E41"/>
<path d="M133.477 482.139L174.749 397.306L187.706 294.054C178.772 277.463 195.363 243.703 195.363 243.703V229.528L259.629 241.653C272.773 277.507 279.147 315.49 278.427 353.67L275.837 490.922H276.65C277.998 490.922 279.29 491.457 280.244 492.41C281.197 493.364 281.732 494.657 281.732 496.005C281.732 497.353 281.197 498.646 280.244 499.599C279.29 500.552 277.998 501.088 276.65 501.088H251.236C249.888 501.088 248.595 500.552 247.642 499.599C246.689 498.646 246.154 497.353 246.154 496.005C246.154 494.657 246.689 493.364 247.642 492.41C248.595 491.457 249.888 490.922 251.236 490.922H251.891L233.648 316.313L212.435 402.478L161.171 481.813C162.479 481.915 163.696 482.52 164.567 483.5C165.438 484.481 165.896 485.761 165.843 487.072C165.79 488.382 165.232 489.621 164.285 490.529C163.338 491.436 162.076 491.942 160.764 491.938H135.351C134.169 491.94 133.024 491.528 132.112 490.776C131.201 490.023 130.581 488.976 130.359 487.815C130.137 486.654 130.327 485.451 130.896 484.415C131.465 483.38 132.378 482.575 133.477 482.139Z" fill="#2F2E41"/>
<path d="M189.552 252.393C189.763 251.564 190.232 250.822 190.89 250.275C191.548 249.728 192.363 249.404 193.217 249.348C194.064 239.663 199.661 177.547 199.874 175.725L199.883 175.648L201.503 141.024C201.562 139.767 202.082 138.575 202.964 137.677C203.846 136.779 205.027 136.237 206.283 136.155L214.844 135.595C214.961 135.591 215.072 135.542 215.154 135.457C215.236 135.373 215.281 135.26 215.281 135.142C215.281 134.197 215.467 133.261 215.829 132.387C216.191 131.514 216.721 130.72 217.39 130.052C218.058 129.383 218.852 128.853 219.725 128.491C220.598 128.13 221.534 127.943 222.48 127.943H247.823C249.465 127.944 251.05 128.544 252.28 129.63C253.511 130.717 254.303 132.215 254.508 133.844C254.519 133.956 254.572 134.059 254.656 134.134C254.741 134.209 254.85 134.249 254.963 134.246L254.966 134.246C257.846 134.187 260.651 135.162 262.874 136.994C265.096 138.827 266.588 141.395 267.078 144.234C270.543 164.394 277.487 210.15 274.054 235.588C272.859 244.443 273.402 257.762 273.854 265.171C273.899 265.887 273.802 266.605 273.569 267.283C273.336 267.962 272.971 268.588 272.496 269.125C273.507 269.416 274.365 270.089 274.889 271.001C275.414 271.912 275.564 272.992 275.308 274.012C275.045 275.058 274.376 275.956 273.451 276.509C272.525 277.062 271.417 277.225 270.371 276.961L192.501 257.33C191.456 257.066 190.557 256.398 190.004 255.472C189.451 254.546 189.289 253.439 189.552 252.393Z" fill="#3F3D56"/>
<path d="M425.495 553H1.21036C0.889354 553 0.581495 552.872 0.354507 552.645C0.127518 552.418 0 552.111 0 551.79C0 551.469 0.127518 551.161 0.354507 550.934C0.581495 550.707 0.889354 550.579 1.21036 550.579H425.495C425.816 550.579 426.124 550.707 426.351 550.934C426.578 551.161 426.705 551.469 426.705 551.79C426.705 552.111 426.578 552.418 426.351 552.645C426.124 552.872 425.816 553 425.495 553Z" fill="#CACACA"/>
<path d="M193.142 310.805C194.165 309.776 194.95 308.536 195.442 307.172C195.934 305.807 196.12 304.351 195.989 302.906C195.857 301.462 195.411 300.064 194.68 298.81C193.95 297.557 192.954 296.479 191.762 295.653L207.559 217.185L190.114 222.786L177.469 298.684C176.214 300.779 175.77 303.261 176.222 305.661C176.674 308.061 177.991 310.212 179.922 311.706C181.854 313.2 184.267 313.933 186.703 313.767C189.14 313.601 191.43 312.547 193.142 310.805Z" fill="#9E616A"/>
<path d="M216.467 144.787L205.643 136.616C205.643 136.616 196.095 135.94 194.404 153.16C192.713 170.38 189.24 203.939 189.24 203.939L172.678 280.655L195.605 285.688L213.345 202.898L223.987 178.312L216.467 144.787Z" fill="#3F3D56"/>
<path d="M357.045 167C355.694 166.472 354.243 166.247 352.796 166.34C351.348 166.434 349.939 166.843 348.667 167.541C347.395 168.238 346.291 169.205 345.434 170.375C344.576 171.545 343.985 172.889 343.703 174.311L265.455 191.141L277.552 204.902L352.187 186.208C354.608 186.523 357.061 185.94 359.081 184.567C361.101 183.195 362.548 181.129 363.147 178.761C363.745 176.394 363.455 173.889 362.33 171.721C361.206 169.553 359.325 167.873 357.045 167Z" fill="#9E616A"/>
<path d="M253.158 209.492C250.657 207.076 248.777 204.092 247.676 200.794L233.389 157.83C232.345 154.692 232.182 151.327 232.917 148.102C233.652 144.878 235.258 141.916 237.559 139.54C239.86 137.165 242.768 135.465 245.967 134.627C249.167 133.789 252.535 133.845 255.705 134.788C259.284 135.857 262.445 138.007 264.756 140.943C267.066 143.878 268.412 147.457 268.61 151.187L270.36 184.997L328.099 176.541L343.107 190.338L342.297 190.615C339.109 191.701 266.13 216.441 254.049 210.117C253.723 209.952 253.423 209.741 253.158 209.492Z" fill="#3F3D56"/>
<path d="M359.33 139.636C359.229 139.636 359.128 139.634 359.026 139.63C357.84 139.587 356.681 139.258 355.649 138.671C354.617 138.084 353.741 137.256 353.098 136.258C348.277 129.053 342.362 122.644 335.565 117.264C331.45 113.975 327.15 110.917 322.992 107.959C312.265 100.331 302.162 93.1468 296.554 83.22C284.328 61.574 298.726 31.4243 319.296 17.9032C342.369 2.73857 372.716 0.359867 402.074 0.0481355C405.125 0.0158685 408.178 -0.000168105 411.233 1.32857e-06C464.13 0.0202851 516.915 4.84716 568.939 14.4211C586.238 17.6129 604.345 21.5229 618.897 31.0119C633.361 40.4448 642.153 55.2992 641.296 68.8565C640.043 88.648 619.064 103.436 599.961 107.303C581.753 110.985 562.837 108.497 542.812 105.861C538.39 105.28 533.82 104.678 529.299 104.156C480.173 98.477 387.886 115.98 383.982 116.728L380.108 117.47L365.078 136.812C364.402 137.694 363.532 138.407 362.535 138.897C361.537 139.387 360.441 139.64 359.33 139.636Z" fill="#407BFF"/>
<path d="M578.095 43.0862H370.454C369.257 43.0844 368.11 42.6076 367.264 41.7605C366.418 40.9134 365.943 39.7652 365.943 38.5681C365.943 37.371 366.418 36.2229 367.264 35.3758C368.11 34.5287 369.257 34.0518 370.454 34.05H578.095C579.292 34.0518 580.439 34.5287 581.285 35.3758C582.131 36.2229 582.606 37.371 582.606 38.5681C582.606 39.7652 582.131 40.9134 581.285 41.7605C580.439 42.6076 579.292 43.0844 578.095 43.0862Z" fill="white"/>
<path d="M578.095 70.8186H370.454C369.861 70.8199 369.273 70.7041 368.724 70.4779C368.175 70.2517 367.676 69.9195 367.255 69.5004C366.835 69.0812 366.501 68.5833 366.273 68.035C366.045 67.4868 365.928 66.899 365.927 66.3053C365.926 65.7115 366.043 65.1235 366.27 64.5748C366.496 64.0261 366.829 63.5274 367.249 63.1074C367.668 62.6873 368.166 62.3541 368.715 62.1268C369.263 61.8995 369.851 61.7825 370.445 61.7825H578.095C579.292 61.7843 580.439 62.2611 581.285 63.1082C582.131 63.9553 582.606 65.1035 582.606 66.3005C582.606 67.4976 582.131 68.6458 581.285 69.4929C580.439 70.34 579.292 70.8168 578.095 70.8186Z" fill="white"/>
<path d="M394.652 98.5506H370.454C369.256 98.5506 368.107 98.0746 367.26 97.2273C366.413 96.3799 365.937 95.2308 365.937 94.0325C365.937 92.8342 366.413 91.685 367.26 90.8377C368.107 89.9904 369.256 89.5144 370.454 89.5144H394.652C395.85 89.5144 396.999 89.9904 397.846 90.8377C398.694 91.685 399.17 92.8342 399.17 94.0325C399.17 95.2308 398.694 96.3799 397.846 97.2273C396.999 98.0746 395.85 98.5506 394.652 98.5506Z" fill="white"/>
</g>
<defs>
<clipPath id="clip0_161_134">
<rect width="767" height="553" fill="white"/>
</clipPath>
</defs>
</svg>
